HIERARCHY
ROOT Hips
{
	OFFSET 0.00000 0.00000 0.00000
	CHANNELS 6 Xposition Yposition Zposition Zrotation Yrotation Xrotation 
	JOINT LHipJoint
	{
		OFFSET 0 0 0
		CHANNELS 3 Zrotation Yrotation Xrotation
		JOINT LeftHip
		{
			OFFSET 3.13874 -1.57224 1.49786
			CHANNELS 3 Zrotation Yrotation Xrotation
			JOINT LeftKnee
			{
				OFFSET 2.10955 -5.79594 0.00000
				CHANNELS 3 Zrotation Yrotation Xrotation
				JOINT LeftAnkle
				{
					OFFSET 2.41843 -6.64458 0.00000
					CHANNELS 3 Zrotation Yrotation Xrotation
					JOINT LeftToe
					{
						OFFSET 0.04713 -0.12948 1.66229
						CHANNELS 3 Zrotation Yrotation Xrotation
						End Site
						{
							OFFSET 0.00000 -0.00000 0.85167
						}
					}
				}
			}
		}
	}
	JOINT RHipJoint
	{
		OFFSET 0 0 0
		CHANNELS 3 Zrotation Yrotation Xrotation
		JOINT RightHip
		{
			OFFSET -3.13988 -1.57224 1.49786
			CHANNELS 3 Zrotation Yrotation Xrotation
			JOINT RightKnee
			{
				OFFSET -2.15006 -5.90725 0.00000
				CHANNELS 3 Zrotation Yrotation Xrotation
				JOINT RightAnkle
				{
					OFFSET -2.34496 -6.44273 0.00000
					CHANNELS 3 Zrotation Yrotation Xrotation
					JOINT RightToe
					{
						OFFSET -0.08699 -0.23900 1.55223
						CHANNELS 3 Zrotation Yrotation Xrotation
						End Site
						{
							OFFSET -0.00000 -0.00000 0.80281
						}
					}
				}
			}
		}
	}
	JOINT lowerback
	{
		OFFSET 0 0 0
		CHANNELS 3 Zrotation Yrotation Xrotation
		JOINT Chest
		{
			OFFSET 0.01292 1.96517 -0.16495
			CHANNELS 3 Zrotation Yrotation Xrotation
			JOINT Chest2
			{
				OFFSET 0.02122 1.88666 0.19706
				CHANNELS 3 Zrotation Yrotation Xrotation
				JOINT lowerneck
				{
					OFFSET 0 0 0
					CHANNELS 3 Zrotation Yrotation Xrotation
					JOINT Neck
					{
						OFFSET -0.01683 1.81591 0.07903
						CHANNELS 3 Zrotation Yrotation Xrotation
						JOINT Head
						{
							OFFSET 0.00815 1.74013 -0.47700
							CHANNELS 3 Zrotation Yrotation Xrotation
							End Site
							{
								OFFSET -0.00204 1.83225 -0.16933
							}
						}
					}
				}
				JOINT LeftCollar
				{
					OFFSET 0 0 0
					CHANNELS 3 Zrotation Yrotation Xrotation
					JOINT LeftShoulder
					{
						OFFSET 3.38482 1.41533 0.19802
CHANNELS 3 Zrotation Xrotation Yrotation
						JOINT LeftElbow
						{
OFFSET 0 -4.327120 0.000000
CHANNELS 3 Zrotation Xrotation Yrotation
							JOINT LeftWrist
							{
OFFSET 0 -3.285870 -0.000000
CHANNELS 3 Zrotation Xrotation Yrotation
								JOINT lhand
								{
									OFFSET 0 0 0
CHANNELS 3 Zrotation Xrotation Yrotation
									JOINT LFingers
									{
OFFSET 0 -0.433160 -0.000000
CHANNELS 3 Zrotation Xrotation Yrotation
										End Site
										{
OFFSET 0 -0.349220 -0.000000
										}
									}
								}
								JOINT LThumb
								{
OFFSET 0 0.000000 0.000000
CHANNELS 3 Zrotation Xrotation Yrotation
									End Site
									{
OFFSET 0 -0.354560 0.354560
									}
								}
							}
						}
					}
				}
				JOINT RightCollar
				{
					OFFSET 0 0 0
					CHANNELS 3 Zrotation Yrotation Xrotation
					JOINT RightShoulder
					{
						OFFSET -3.09725 1.62858 -0.14144
CHANNELS 3 Zrotation Xrotation Yrotation
						JOINT RightElbow
						{
OFFSET 0 -4.291040 0.000000
CHANNELS 3 Zrotation Xrotation Yrotation
							JOINT RightWrist
							{
OFFSET 0 -3.227200 -0.000000
CHANNELS 3 Zrotation Xrotation Yrotation
								JOINT rhand
								{
									OFFSET 0 0 0
CHANNELS 3 Zrotation Xrotation Yrotation
									JOINT RFingers
									{
OFFSET 0 -0.543620 -0.000000
CHANNELS 3 Zrotation Xrotation Yrotation
										End Site
										{
OFFSET 0 -0.438280 -0.000000
										}
									}
								}
								JOINT RThumb
								{
OFFSET 0 0.000000 0.000000
CHANNELS 3 Zrotation Xrotation Yrotation
									End Site
									{
OFFSET 0 -0.444970 0.444970
									}
								}
							}
						}
					}
				}
			}
		}
	}
}
MOTION
Frames: 10
Frame Time: 0.008333333333333333
27.489100 16.017100 3.973000 -120.708000 -84.649600 132.419000 0.000000 0.000000 0.000000 -28.590900 -34.894900 10.487000 0.001600 0.261400 0.718100 7.513600 -28.430500 -51.834700 8.655700 -16.580900 -54.891500 0.000000 0.000000 0.000000 35.662700 25.074100 6.448900 -0.215300 2.987200 -8.243200 1.914000 -25.084800 -19.011200 -3.544800 11.528700 -34.084500 4.468300 1.512900 6.257300 0.983100 2.512500 -8.347100 -1.831400 0.762900 -12.423700 -8.360800 -12.809300 -15.105300 -0.048600 -17.124300 29.940000 -1.492200 -8.720700 13.286600 0.000000 -0.000000 0.000000 8.402100 15.854500 -17.262600 17.449000 -27.445900 4.292300 23.141200 17.696700 -29.374100 0.000000 0.000000 0.000000 -7.125000 0.000000 0.000000 -9.292400 61.213900 3.687400 0.000000 -0.000000 0.000000 -16.312500 12.318800 46.035100 -19.395200 -29.906800 -5.226400 -25.712300 -3.673300 20.608300 0.000000 0.000000 0.000000 7.125000 0.000000 -0.000000 2.930800 52.610400 -0.549300
27.479927 16.016852 3.965711 -120.174987 -84.599918 131.905820 0.000000 0.000000 0.000000 -28.509436 -34.876802 10.534104 0.001501 0.250343 0.687755 7.406799 -28.577909 -51.491043 8.516769 -16.485553 -54.402020 0.000000 0.000000 0.000000 35.759783 25.072117 6.474683 -0.216044 2.992208 -8.257133 1.890200 -25.021136 -19.175666 -3.495961 11.457251 -33.838471 4.544657 1.503727 6.193834 0.997628 2.505707 -8.349827 -1.854853 0.754025 -12.386315 -8.377261 -12.798045 -14.992450 0.014122 -17.118697 29.808556 -1.449956 -8.715990 13.217085 0.000000 0.000000 0.000000 8.397092 15.829659 -17.356410 17.542265 -27.566882 4.335437 22.419078 17.015236 -28.788876 0.000000 0.000000 0.000000 -7.125000 0.000000 0.000000 -9.766063 60.446956 3.690226 0.000000 0.000000 0.000000 -16.274272 12.375820 45.891112 -19.285523 -29.771687 -5.171958 -25.665742 -3.639138 20.585988 0.000000 0.000000 0.000000 7.125000 0.000000 0.000000 2.972747 52.577725 -0.554754
27.470754 16.016604 3.958423 -119.641973 -84.550236 131.392639 0.000000 0.000000 0.000000 -28.427971 -34.858705 10.581207 0.001402 0.239286 0.657411 7.299998 -28.725318 -51.147385 8.377839 -16.390205 -53.912540 0.000000 0.000000 0.000000 35.856866 25.070133 6.500466 -0.216787 2.997216 -8.271065 1.866401 -24.957472 -19.340131 -3.447122 11.385803 -33.592442 4.621015 1.494554 6.130368 1.012155 2.498914 -8.352554 -1.878305 0.745149 -12.348929 -8.393723 -12.786789 -14.879600 0.076844 -17.113094 29.677113 -1.407711 -8.711279 13.147570 0.000000 0.000000 0.000000 8.392084 15.804818 -17.450221 17.635530 -27.687863 4.378574 21.696957 16.333772 -28.203652 0.000000 0.000000 0.000000 -7.125000 0.000000 0.000000 -10.239726 59.680012 3.693052 0.000000 0.000000 0.000000 -16.236044 12.432840 45.747124 -19.175846 -29.636575 -5.117517 -25.619184 -3.604975 20.563676 0.000000 0.000000 0.000000 7.125000 0.000000 0.000000 3.014694 52.545050 -0.560208
27.460802 16.015040 3.951719 -119.428259 -84.515910 131.187546 0.000000 0.000000 0.000000 -28.425966 -34.903297 10.677838 0.001449 0.243146 0.668015 7.145765 -28.992501 -50.660409 8.166615 -16.238261 -53.157189 0.000000 0.000000 0.000000 35.923627 25.074634 6.532684 -0.216020 2.992035 -8.256578 1.839725 -24.890493 -19.532188 -3.388582 11.298414 -33.293765 4.660421 1.495619 6.090545 1.020395 2.502554 -8.367956 -1.890594 0.743196 -12.341134 -8.386249 -12.796398 -14.807308 0.097399 -17.134547 29.600949 -1.395057 -8.720121 13.103551 0.000000 0.000000 0.000000 8.398678 15.834380 -17.668436 17.779931 -27.874021 4.446085 21.779956 16.168793 -28.078024 0.000000 0.000000 0.000000 -7.125000 0.000000 0.000000 -10.077960 59.572529 3.608766 0.000000 0.000000 0.000000 -16.228137 12.537731 45.660561 -19.079380 -29.517013 -5.069997 -25.579012 -3.577394 20.563397 0.000000 0.000000 0.000000 7.125000 0.000000 0.000000 3.055715 52.537237 -0.567271
27.450836 16.013453 3.945025 -119.220012 -84.481847 130.987728 0.000000 0.000000 0.000000 -28.425322 -34.948962 10.775318 0.001498 0.247261 0.679319 6.990720 -29.261735 -50.170979 7.954154 -16.085349 -52.397286 0.000000 0.000000 0.000000 35.989870 25.079245 6.565012 -0.215227 2.986680 -8.241604 1.813000 -24.823457 -19.724718 -3.329877 11.210752 -32.994187 4.699194 1.496858 6.051127 1.028526 2.506371 -8.383574 -1.902693 0.741362 -12.333845 -8.378365 -12.806364 -14.735711 0.117232 -17.156462 29.525733 -1.382909 -8.729194 13.059967 0.000000 0.000000 0.000000 8.405471 15.864873 -17.888781 17.925209 -28.061294 4.514013 21.876741 16.012657 -27.960265 0.000000 0.000000 0.000000 -7.125000 0.000000 0.000000 -9.905313 59.476339 3.522988 0.000000 0.000000 0.000000 -16.220749 12.643441 45.574981 -18.983140 -29.397717 -5.022596 -25.538949 -3.549925 20.563497 0.000000 0.000000 0.000000 7.125000 0.000000 0.000000 3.096719 52.529849 -0.574361
27.440103 16.011531 3.938188 -119.774063 -84.464457 131.559312 0.000000 0.000000 0.000000 -28.477717 -35.025053 10.865802 0.001596 0.258133 0.709167 6.841281 -29.598574 -49.715711 7.715963 -15.903352 -51.528140 0.000000 0.000000 0.000000 35.988746 25.144993 6.564040 -0.211415 2.960196 -8.167937 1.791210 -24.771274 -19.883708 -3.245585 11.081165 -32.555564 4.657809 1.515634 5.999443 1.024536 2.522551 -8.399816 -1.884941 0.752368 -12.320568 -8.370051 -12.786960 -14.757879 0.123075 -17.139568 29.587212 -1.384273 -8.719917 13.088973 0.000000 0.000000 0.000000 8.422182 15.876968 -18.160010 18.088836 -28.270273 4.591524 22.060202 15.947844 -28.150971 0.000000 0.000000 0.000000 -7.125000 0.000000 0.000000 -9.807507 59.712714 3.542667 0.000000 0.000000 0.000000 -16.208857 12.748288 45.501141 -18.912294 -29.309421 -4.987892 -25.538271 -3.503051 20.654679 0.000000 0.000000 0.000000 7.125000 0.000000 0.000000 3.121434 52.627535 -0.586482
27.429343 16.009598 3.931346 -120.354676 -84.447649 132.157775 0.000000 0.000000 0.000000 -28.531960 -35.102204 10.956042 0.001695 0.269239 0.739660 6.692038 -29.937769 -49.261633 7.476875 -15.720343 -50.655188 0.000000 0.000000 0.000000 35.985275 25.212872 6.561908 -0.207498 2.932975 -8.092224 1.769592 -24.719609 -20.041529 -3.160402 10.950119 -32.112097 4.613631 1.535021 5.947332 1.020123 2.539161 -8.416079 -1.866149 0.763822 -12.307081 -8.361721 -12.766532 -14.783315 0.128430 -17.121322 29.653454 -1.386107 -8.710001 13.120507 0.000000 0.000000 0.000000 8.439239 15.888422 -18.433012 18.253104 -28.480007 4.669368 22.246682 15.886213 -28.352426 0.000000 0.000000 0.000000 -7.125000 0.000000 0.000000 -9.712308 59.960677 3.566021 0.000000 0.000000 0.000000 -16.196809 12.853106 45.427709 -18.842333 -29.222205 -4.953630 -25.538965 -3.455502 20.749035 0.000000 0.000000 0.000000 7.125000 0.000000 0.000000 3.145580 52.728881 -0.598779
27.418772 16.007899 3.924409 -120.625513 -84.425191 132.444107 0.000000 0.000000 0.000000 -28.556733 -35.145693 11.043034 0.001747 0.270930 0.744307 6.551315 -30.220093 -48.828647 7.247627 -15.533991 -49.799750 0.000000 0.000000 0.000000 36.011605 25.256270 6.575500 -0.204946 2.914887 -8.041934 1.741571 -24.647277 -20.222137 -3.082705 10.826651 -31.698666 4.606080 1.543909 5.899881 1.019335 2.546544 -8.427963 -1.862469 0.767884 -12.291147 -8.369586 -12.751188 -14.755270 0.168105 -17.112114 29.640605 -1.366333 -8.702956 13.114238 0.000000 0.000000 0.000000 8.455401 15.897145 -18.674989 18.407061 -28.674818 4.743212 22.441683 15.859325 -28.519889 0.000000 0.000000 0.000000 -7.125000 0.000000 0.000000 -9.588486 60.177238 3.568989 0.000000 0.000000 0.000000 -16.177227 12.943235 45.329325 -18.762392 -29.122184 -4.914708 -25.509293 -3.433939 20.769665 0.000000 0.000000 0.000000 7.125000 0.000000 0.000000 3.181544 52.745440 -0.606933
27.408211 16.006214 3.917467 -120.879871 -84.402433 132.713836 0.000000 0.000000 0.000000 -28.579937 -35.187392 11.129854 0.001797 0.272120 0.747580 6.411046 -30.499392 -48.396782 7.018902 -15.347461 -48.945243 0.000000 0.000000 0.000000 36.039520 25.298365 6.589928 -0.202467 2.897285 -7.992995 1.713210 -24.573845 -20.403956 -3.005405 10.703587 -31.286833 4.600477 1.552239 5.852679 1.018740 2.553436 -8.439615 -1.859594 0.771553 -12.275082 -8.378312 -12.736115 -14.724380 0.209605 -17.103388 29.623549 -1.345409 -8.696064 13.105958 0.000000 0.000000 0.000000 8.471515 15.905722 -18.915316 18.560469 -28.868835 4.816842 22.637138 15.834286 -28.685545 0.000000 0.000000 0.000000 -7.125000 0.000000 0.000000 -9.463141 60.392129 3.570873 0.000000 0.000000 0.000000 -16.157246 13.032583 45.229615 -18.681919 -29.021481 -4.875538 -25.478007 -3.413759 20.786375 0.000000 0.000000 0.000000 7.125000 0.000000 0.000000 3.218136 52.757489 -0.614866
27.397141 16.004481 3.910572 -121.266950 -84.386749 133.116748 0.000000 0.000000 0.000000 -28.616830 -35.220351 11.219586 0.001754 0.269795 0.741233 6.269620 -30.773743 -47.961957 6.775888 -15.136607 -48.015127 0.000000 0.000000 0.000000 36.055042 25.346010 6.605282 -0.199664 2.877140 -7.936982 1.682166 -24.492598 -20.594146 -2.922326 10.566927 -30.834166 4.585764 1.560060 5.809037 1.012411 2.558339 -8.450712 -1.857596 0.774806 -12.260682 -8.388796 -12.717574 -14.694138 0.259291 -17.091702 29.605382 -1.320786 -8.686999 13.098371 0.000000 0.000000 0.000000 8.494196 15.915503 -19.168823 18.721462 -29.070621 4.895004 22.944873 15.900717 -28.942670 0.000000 0.000000 0.000000 -7.125000 0.000000 0.000000 -9.262696 60.728503 3.566977 0.000000 0.000000 0.000000 -16.133194 13.118509 45.129719 -18.607273 -28.927623 -4.839420 -25.443622 -3.404585 20.775939 0.000000 0.000000 0.000000 7.125000 0.000000 0.000000 3.250612 52.739849 -0.619654
